<svg width="87" height="19" viewBox="0 0 87 19" fill="none" xmlns="http://www.w3.org/2000/svg">
<mask id="mask0_34_1735" style="mask-type:alpha" maskUnits="userSpaceOnUse" x="0" y="0" width="87" height="18">
<path d="M8.64593 12.698C9.41441 12.471 10.0924 11.9943 10.1209 11.2358C10.1464 10.5607 9.67718 10.4504 9.16852 10.4341C8.726 10.4154 8.3797 10.4353 8.38316 10.1756C8.3867 9.94163 8.64593 9.8127 8.93827 9.77588C9.3263 9.7269 9.75776 9.82493 9.9527 9.948L9.9805 9.14633C9.74095 9.01388 9.36803 8.9007 8.8826 8.93745C8.00331 9.00398 7.28584 9.46373 7.28526 10.3127C7.28468 11.188 8.02764 11.209 8.58385 11.199C8.96901 11.1891 9.23812 11.1956 9.2323 11.4248C9.22655 11.653 8.97012 11.8129 8.61401 11.901C8.06996 12.0358 7.49694 11.9762 7.229 11.8391V12.8159C7.66342 12.89 8.19818 12.8299 8.64593 12.698Z" fill="#1E202C"/>
<path d="M12.2368 1.47858C10.6557 1.13607 8.56427 0.947021 6.34633 0.947021C4.129 0.947021 2.03695 1.13548 0.455878 1.47858L0 1.57719V8.85675C0 10.5623 0.660037 12.1657 1.85889 13.3712C3.05774 14.5773 4.65157 15.2413 6.34633 15.2413C8.04168 15.2413 9.63547 14.5773 10.8338 13.3712C12.0326 12.1651 12.6926 10.5617 12.6926 8.85675V1.57719L12.2368 1.47858ZM9.13611 3.20394C9.6674 3.23721 10.0832 3.67015 10.0809 4.17487C10.078 4.6825 9.65346 5.09503 9.11583 5.09386C8.55962 5.09211 8.1014 4.65041 8.1101 4.11069C8.11939 3.5733 8.58631 3.16952 9.13611 3.20394ZM9.20283 5.46788C10.1749 5.46087 10.9178 6.14472 10.9178 7.03804C10.9178 7.03804 9.58217 7.17749 9.13552 7.209C8.65997 7.24226 7.22792 7.30178 7.22792 7.30178C7.24996 6.29118 8.16407 5.47488 9.20283 5.46788ZM4.57618 12.7673L4.61214 10.3686C4.06172 10.9258 3.15402 11.8734 2.66799 12.538C2.44585 12.3133 2.24343 12.0677 2.06421 11.8057C2.71149 11.3237 3.63252 10.4299 4.1783 9.88432L1.94647 9.79732V9.00442C2.7312 9.16605 3.91382 9.23722 4.62838 9.26752L5.22925 9.2874C5.22925 9.2874 5.22925 9.3072 5.2281 9.34395L5.21881 9.86505C5.21011 10.6189 5.21475 11.9376 5.33307 12.8198L4.57618 12.7673ZM11.5373 8.85735C11.5373 11.7369 9.20858 14.079 6.34691 14.079V8.3019C4.50367 8.3019 2.66045 8.184 1.15652 7.94947V2.5236C2.64537 2.24703 4.49614 2.10933 6.34691 2.10933V6.53682V8.3019C8.19017 8.3019 10.0334 8.184 11.5373 7.94947V8.85735Z" fill="#1E202C"/>
<path d="M4.36405 5.37783L4.39768 5.37199C4.95332 5.30198 5.34366 4.82002 5.34366 4.25929C5.34366 3.65654 4.90402 3.11681 4.052 3.17925C4.052 3.17925 3.34905 3.2236 3.11415 3.24344C2.85779 3.26502 2.08813 3.34438 2.08813 3.34438V7.07519C2.08813 7.07519 2.45295 7.11545 2.57533 7.12771C2.70467 7.14054 3.09385 7.17439 3.09385 7.17439V5.71975H3.36993L4.15873 7.24557C4.15873 7.24557 4.68478 7.273 4.8553 7.27941C5.04032 7.287 5.57565 7.2975 5.57565 7.2975L4.36405 5.42392V5.37783ZM3.62281 5.08375L3.09327 5.09308V4.06557L3.64427 4.03814C3.99458 4.02064 4.16974 4.27154 4.16974 4.53119C4.17033 4.79668 3.98414 5.07733 3.62281 5.08375Z" fill="#1E202C"/>
<path d="M16.2555 1.59412H23.006C25.6995 1.59412 27.0457 3.21621 27.0457 5.01685C27.0457 6.69262 25.8584 8.11867 24.122 8.31472L24.0158 8.3328V8.47515L27.7544 14.0725H23.3424L20.7557 9.38422H19.8166V14.0725H16.2549L16.2555 1.59412ZM21.6065 7.38756C22.7937 7.38756 23.3964 6.53217 23.3964 5.71178C23.3964 4.90949 22.8291 4.10778 21.6779 4.10778H19.8172V7.38756H21.6065Z" fill="#1E202C"/>
<path d="M32.1442 4.03198C34.8406 4.03198 36.4884 5.6144 36.4884 8.5908V9.57045H30.4779C30.7215 11.1529 31.7701 11.6611 33.0804 11.6611C34.0727 11.6611 35.2524 11.3728 36.2071 10.9206V13.6519C35.0837 14.2926 33.6232 14.3737 32.6308 14.3737C29.6537 14.3737 27.1069 12.9232 27.1069 9.28747C27.1075 5.8968 29.4292 4.03198 32.1442 4.03198ZM33.6238 8.11987C33.6238 6.89574 32.9499 6.34901 32.1633 6.34901C31.3392 6.34901 30.6652 6.95175 30.4779 8.11987H33.6238Z" fill="#1E202C"/>
<path d="M41.6821 4.05066C43.0115 4.05066 44.1164 4.33306 44.9592 4.8232V7.32869C44.3223 6.89516 42.8804 6.48088 41.757 6.48088C41.0453 6.48088 40.3337 6.68802 40.3337 7.29076C40.3337 8.02537 41.3638 8.0067 42.6368 8.2704C44.0602 8.53417 45.5954 9.0237 45.5954 11.1715C45.5954 13.7896 43.4233 14.4116 41.326 14.4116C39.9404 14.4116 38.48 14.0854 37.4128 13.6525V10.9585C38.0682 11.3728 39.4162 11.944 40.8394 11.944C41.8504 11.944 42.5434 11.6424 42.5434 11.021C42.5434 10.4182 41.7193 10.3237 40.7269 10.1545C39.2288 9.92872 37.3943 9.58912 37.3943 7.27267C37.3943 4.93639 39.3419 4.05066 41.6821 4.05066Z" fill="#1E202C"/>
<path d="M52.1649 11.5293C52.8951 11.5293 53.5504 11.2411 54.0185 10.9208V13.6147C53.2883 14.0669 52.0714 14.3738 51.1539 14.3738C48.9442 14.3738 47.2216 13.2623 47.2216 10.5875V6.9711H45.7234V4.353H47.2216V1.59485H50.723V4.353H53.8126V6.9711H50.723V10.0227C50.723 11.0771 51.3412 11.5293 52.1649 11.5293Z" fill="#1E202C"/>
<path d="M61.4581 14.0914L61.2888 12.0002H61.1762C60.8955 13.3002 59.6972 14.3738 58.068 14.3738C56.3455 14.3738 54.9221 13.1684 54.9221 11.0211V4.35242H58.4236V10.0601C58.4236 11.115 59.0041 11.6991 59.7158 11.6991C60.3712 11.6991 61.1391 11.153 61.1391 9.9282V4.35242H64.6405V14.0914H61.4581Z" fill="#1E202C"/>
<path d="M75.8884 14.0722H72.6058L72.4991 12.1321H72.368C71.9562 13.3189 71.1135 14.3738 69.2784 14.3738C67.1248 14.3738 65.5525 12.6029 65.5525 9.38205C65.5525 6.0101 67.2003 4.05133 69.3723 4.05133C71.0201 4.05133 71.9939 5.08761 72.2931 6.44363H72.4057V1.59485H75.8884V14.0722ZM70.7202 6.63151C69.6901 6.63151 69.0539 7.68645 69.0539 9.26888C69.0539 10.8134 69.6716 11.8683 70.7016 11.8683C71.7318 11.8683 72.4057 10.776 72.4057 9.26888C72.4057 7.7244 71.7689 6.63151 70.7202 6.63151Z" fill="#1E202C"/>
<path d="M78.872 14.41C79.683 14.41 80.6887 14.3727 81.12 13.0919H79.585L76.3638 4.33264H80.0524L81.6627 10.1342H81.9067L83.4049 4.33264H86.9992L84.022 13.676C83.1793 16.3886 81.0367 16.9453 79.4641 16.9453C78.6405 16.9453 77.7499 16.6442 77.2441 16.4184V14.0716C77.6555 14.2228 78.4038 14.41 78.872 14.41Z" fill="#1E202C"/>
</mask>
<g mask="url(#mask0_34_1735)">
<rect width="87" height="19" fill="white"/>
</g>
</svg>
