<svg width="801" height="800" viewBox="0 0 801 800" fill="none" xmlns="http://www.w3.org/2000/svg">
<path d="M446.298 720.457C448.585 736.447 437.472 751.392 421.347 752.348C353.635 756.366 285.965 740.8 226.566 707.201C158.653 668.786 105.375 608.961 75.0514 537.071C44.7278 465.18 39.0663 385.271 58.9512 309.823C78.8362 234.375 123.148 167.637 184.966 120.031C246.784 72.4246 322.627 46.6315 400.652 46.6795C478.676 46.7275 554.488 72.614 616.247 120.296C678.006 167.978 722.236 234.771 742.028 310.243C759.339 376.255 757.103 445.656 735.921 510.096C730.877 525.441 713.589 532.367 698.714 526.071C683.839 519.775 677.035 502.641 681.826 487.215C698.118 434.76 699.478 378.586 685.447 325.081C668.933 262.11 632.029 206.381 580.5 166.597C528.97 126.813 465.716 105.214 400.616 105.174C335.515 105.134 272.234 126.655 220.656 166.375C169.077 206.096 132.105 261.78 115.514 324.731C98.9231 387.681 103.647 454.354 128.948 514.337C154.248 574.32 198.702 624.235 255.365 656.287C303.511 683.52 358.168 696.555 413.045 694.204C429.183 693.512 444.01 704.467 446.298 720.457Z" fill="white" fill-opacity="0.3"/>
<path d="M402.499 617.829C402.57 628.19 394.215 636.727 383.884 635.941C340.499 632.64 298.835 616.895 263.986 590.404C224.144 560.116 195.453 517.486 182.396 469.171C169.338 420.856 172.649 369.577 191.812 323.343C210.974 277.108 244.908 238.521 288.315 213.609C331.722 188.696 382.158 178.86 431.745 185.637C481.332 192.414 527.279 215.422 562.41 251.068C597.54 286.714 619.877 332.991 625.931 382.672C631.226 426.125 623.804 470.042 604.769 509.167C600.236 518.484 588.65 521.392 579.74 516.104C570.829 510.816 567.987 499.338 572.366 489.948C587.256 458.016 592.977 422.431 588.685 387.21C583.634 345.759 564.998 307.147 535.686 277.405C506.374 247.663 468.038 228.466 426.664 222.812C385.291 217.158 343.209 225.365 306.992 246.151C270.775 266.937 242.462 299.132 226.473 337.709C210.485 376.285 207.723 419.07 218.617 459.382C229.512 499.694 253.45 535.263 286.693 560.534C314.939 582.006 348.552 595.017 383.634 598.267C393.951 599.223 402.428 607.468 402.499 617.829Z" fill="white" fill-opacity="0.3"/>
</svg>
