<svg width="442" height="433" viewBox="0 0 442 433" fill="none" xmlns="http://www.w3.org/2000/svg">
<path d="M440.413 387.944C445.237 405.202 435.169 423.259 417.541 426.479C367.703 435.583 316.356 433.879 267.012 421.325C207.158 406.097 152.345 375.438 108.041 332.408C63.7379 289.378 31.494 235.482 14.5274 176.098C0.539848 127.141 -2.66118 75.8655 4.98553 25.7828C7.69012 8.06891 25.4466 -2.52118 42.8376 1.79722C60.2287 6.11562 70.6321 23.7132 68.2944 41.4793C63.1632 80.4766 66.0534 120.231 76.9217 158.271C90.7708 206.744 117.09 250.736 153.252 285.859C189.415 320.982 234.156 346.007 283.012 358.437C321.352 368.191 361.174 369.921 400.006 363.655C417.696 360.8 435.589 370.686 440.413 387.944Z" fill="white" fill-opacity="0.3"/>
</svg>
